<svg width="939" height="409" viewBox="0 0 939 409" fill="none" xmlns="http://www.w3.org/2000/svg">
<g filter="url(#filter0_d_4_92)">
<mask id="path-1-outside-1_4_92" maskUnits="userSpaceOnUse" x="18" y="87" width="562" height="220" fill="black">
<rect fill="white" x="18" y="87" width="562" height="220"/>
<path d="M46.8 305.7C38 305.7 31.2 303.3 26.4 298.5C21.6 293.5 19.2 286.6 19.2 277.8V119.4C19.2 110.4 21.6 103.5 26.4 98.7C31.4 93.9 38.3 91.5 47.1 91.5H120.9C144.9 91.5 163.4 97.7 176.4 110.1C189.6 122.3 196.2 139.2 196.2 160.8C196.2 182.4 189.6 199.4 176.4 211.8C163.4 224 144.9 230.1 120.9 230.1H74.4V277.8C74.4 286.6 72.1 293.5 67.5 298.5C62.9 303.3 56 305.7 46.8 305.7ZM74.4 187.8H111.3C121.7 187.8 129.7 185.6 135.3 181.2C140.9 176.6 143.7 169.8 143.7 160.8C143.7 151.6 140.9 144.8 135.3 140.4C129.7 136 121.7 133.8 111.3 133.8H74.4V187.8ZM245.934 303C237.134 303 230.734 301 226.734 297C222.934 292.8 221.034 286.7 221.034 278.7C221.034 273.1 222.234 268.1 224.634 263.7C227.234 259.3 230.534 255 234.534 250.8L287.034 195.9C294.834 187.5 300.334 180.3 303.534 174.3C306.934 168.3 308.634 162.3 308.634 156.3C308.634 148.7 306.134 143 301.134 139.2C296.134 135.4 288.934 133.5 279.534 133.5C274.734 133.5 269.634 134.2 264.234 135.6C258.834 136.8 253.034 139 246.834 142.2C241.434 144.6 236.534 145.3 232.134 144.3C227.934 143.3 224.334 141.1 221.334 137.7C218.534 134.3 216.734 130.4 215.934 126C215.334 121.6 216.034 117.3 218.034 113.1C220.034 108.7 223.634 105.1 228.834 102.3C238.034 97.3 247.534 93.7 257.334 91.5C267.334 89.3 277.334 88.2 287.334 88.2C303.734 88.2 317.434 90.6 328.434 95.4C339.634 100.2 348.134 107.2 353.934 116.4C359.734 125.4 362.634 136.6 362.634 150C362.634 158.4 361.334 166.6 358.734 174.6C356.334 182.6 352.334 190.6 346.734 198.6C341.334 206.6 334.034 215.1 324.834 224.1L276.234 272.1V258.3H350.334C357.734 258.3 363.334 260.2 367.134 264C371.134 267.8 373.134 273.3 373.134 280.5C373.134 287.7 371.134 293.3 367.134 297.3C363.334 301.1 357.734 303 350.334 303H245.934ZM429.417 305.7C420.617 305.7 413.817 303.3 409.017 298.5C404.217 293.5 401.817 286.6 401.817 277.8V119.4C401.817 110.4 404.217 103.5 409.017 98.7C414.017 93.9 420.917 91.5 429.717 91.5H503.517C527.517 91.5 546.017 97.7 559.017 110.1C572.217 122.3 578.817 139.2 578.817 160.8C578.817 182.4 572.217 199.4 559.017 211.8C546.017 224 527.517 230.1 503.517 230.1H457.017V277.8C457.017 286.6 454.717 293.5 450.117 298.5C445.517 303.3 438.617 305.7 429.417 305.7ZM457.017 187.8H493.917C504.317 187.8 512.317 185.6 517.917 181.2C523.517 176.6 526.317 169.8 526.317 160.8C526.317 151.6 523.517 144.8 517.917 140.4C512.317 136 504.317 133.8 493.917 133.8H457.017V187.8Z"/>
</mask>
<path d="M46.8 305.7C38 305.7 31.2 303.3 26.4 298.5C21.6 293.5 19.2 286.6 19.2 277.8V119.4C19.2 110.4 21.6 103.5 26.4 98.7C31.4 93.9 38.3 91.5 47.1 91.5H120.9C144.9 91.5 163.4 97.7 176.4 110.1C189.6 122.3 196.2 139.2 196.2 160.8C196.2 182.4 189.6 199.4 176.4 211.8C163.4 224 144.9 230.1 120.9 230.1H74.4V277.8C74.4 286.6 72.1 293.5 67.5 298.5C62.9 303.3 56 305.7 46.8 305.7ZM74.4 187.8H111.3C121.7 187.8 129.7 185.6 135.3 181.2C140.9 176.6 143.7 169.8 143.7 160.8C143.7 151.6 140.9 144.8 135.3 140.4C129.7 136 121.7 133.8 111.3 133.8H74.4V187.8ZM245.934 303C237.134 303 230.734 301 226.734 297C222.934 292.8 221.034 286.7 221.034 278.7C221.034 273.1 222.234 268.1 224.634 263.7C227.234 259.3 230.534 255 234.534 250.8L287.034 195.9C294.834 187.5 300.334 180.3 303.534 174.3C306.934 168.3 308.634 162.3 308.634 156.3C308.634 148.7 306.134 143 301.134 139.2C296.134 135.4 288.934 133.5 279.534 133.5C274.734 133.5 269.634 134.2 264.234 135.6C258.834 136.8 253.034 139 246.834 142.2C241.434 144.6 236.534 145.3 232.134 144.3C227.934 143.3 224.334 141.1 221.334 137.7C218.534 134.3 216.734 130.4 215.934 126C215.334 121.6 216.034 117.3 218.034 113.1C220.034 108.7 223.634 105.1 228.834 102.3C238.034 97.3 247.534 93.7 257.334 91.5C267.334 89.3 277.334 88.2 287.334 88.2C303.734 88.2 317.434 90.6 328.434 95.4C339.634 100.2 348.134 107.2 353.934 116.4C359.734 125.4 362.634 136.6 362.634 150C362.634 158.4 361.334 166.6 358.734 174.6C356.334 182.6 352.334 190.6 346.734 198.6C341.334 206.6 334.034 215.1 324.834 224.1L276.234 272.1V258.3H350.334C357.734 258.3 363.334 260.2 367.134 264C371.134 267.8 373.134 273.3 373.134 280.5C373.134 287.7 371.134 293.3 367.134 297.3C363.334 301.1 357.734 303 350.334 303H245.934ZM429.417 305.7C420.617 305.7 413.817 303.3 409.017 298.5C404.217 293.5 401.817 286.6 401.817 277.8V119.4C401.817 110.4 404.217 103.5 409.017 98.7C414.017 93.9 420.917 91.5 429.717 91.5H503.517C527.517 91.5 546.017 97.7 559.017 110.1C572.217 122.3 578.817 139.2 578.817 160.8C578.817 182.4 572.217 199.4 559.017 211.8C546.017 224 527.517 230.1 503.517 230.1H457.017V277.8C457.017 286.6 454.717 293.5 450.117 298.5C445.517 303.3 438.617 305.7 429.417 305.7ZM457.017 187.8H493.917C504.317 187.8 512.317 185.6 517.917 181.2C523.517 176.6 526.317 169.8 526.317 160.8C526.317 151.6 523.517 144.8 517.917 140.4C512.317 136 504.317 133.8 493.917 133.8H457.017V187.8Z" fill="#006B3F"/>
<path d="M26.4 298.5L25.6786 299.193L25.6857 299.2L25.6929 299.207L26.4 298.5ZM26.4 98.7L25.7075 97.9786L25.7001 97.9857L25.6929 97.9929L26.4 98.7ZM176.4 110.1L175.71 110.824L175.715 110.829L175.721 110.834L176.4 110.1ZM176.4 211.8L177.084 212.529L177.085 212.529L176.4 211.8ZM74.4 230.1V229.1H73.4V230.1H74.4ZM67.5 298.5L68.222 299.192L68.229 299.185L68.2359 299.177L67.5 298.5ZM74.4 187.8H73.4V188.8H74.4V187.8ZM135.3 181.2L135.918 181.986L135.926 181.98L135.935 181.973L135.3 181.2ZM135.3 140.4L135.918 139.614V139.614L135.3 140.4ZM74.4 133.8V132.8H73.4V133.8H74.4ZM46.8 305.7V304.7C38.1832 304.7 31.6686 302.354 27.1071 297.793L26.4 298.5L25.6929 299.207C30.7314 304.246 37.8168 306.7 46.8 306.7V305.7ZM26.4 298.5L27.1214 297.807C22.5449 293.04 20.2 286.415 20.2 277.8H19.2H18.2C18.2 286.785 20.6551 293.96 25.6786 299.193L26.4 298.5ZM19.2 277.8H20.2V119.4H19.2H18.2V277.8H19.2ZM19.2 119.4H20.2C20.2 110.576 22.5496 103.965 27.1071 99.4071L26.4 98.7L25.6929 97.9929C20.6504 103.035 18.2 110.224 18.2 119.4H19.2ZM26.4 98.7L27.0925 99.4214C31.8597 94.8448 38.4855 92.5 47.1 92.5V91.5V90.5C38.1145 90.5 30.9403 92.9551 25.7075 97.9786L26.4 98.7ZM47.1 91.5V92.5H120.9V91.5V90.5H47.1V91.5ZM120.9 91.5V92.5C144.731 92.5 162.951 98.6539 175.71 110.824L176.4 110.1L177.09 109.376C163.849 96.7461 145.069 90.5 120.9 90.5V91.5ZM176.4 110.1L175.721 110.834C188.676 122.807 195.2 139.418 195.2 160.8H196.2H197.2C197.2 138.982 190.524 121.793 177.079 109.366L176.4 110.1ZM196.2 160.8H195.2C195.2 182.182 188.676 198.896 175.715 211.071L176.4 211.8L177.085 212.529C190.524 199.904 197.2 182.618 197.2 160.8H196.2ZM176.4 211.8L175.716 211.071C162.958 223.044 144.736 229.1 120.9 229.1V230.1V231.1C145.064 231.1 163.842 224.956 177.084 212.529L176.4 211.8ZM120.9 230.1V229.1H74.4V230.1V231.1H120.9V230.1ZM74.4 230.1H73.4V277.8H74.4H75.4V230.1H74.4ZM74.4 277.8H73.4C73.4 286.426 71.1488 293.057 66.7641 297.823L67.5 298.5L68.2359 299.177C73.0512 293.943 75.4 286.775 75.4 277.8H74.4ZM67.5 298.5L66.778 297.808C62.4298 302.345 55.8348 304.7 46.8 304.7V305.7V306.7C56.1652 306.7 63.3702 304.255 68.222 299.192L67.5 298.5ZM74.4 187.8V188.8H111.3V187.8V186.8H74.4V187.8ZM111.3 187.8V188.8C121.824 188.8 130.077 186.576 135.918 181.986L135.3 181.2L134.682 180.414C129.323 184.624 121.576 186.8 111.3 186.8V187.8ZM135.3 181.2L135.935 181.973C141.821 177.138 144.7 170.02 144.7 160.8H143.7H142.7C142.7 169.58 139.979 176.062 134.665 180.427L135.3 181.2ZM143.7 160.8H144.7C144.7 151.391 141.827 144.256 135.918 139.614L135.3 140.4L134.682 141.186C139.973 145.344 142.7 151.809 142.7 160.8H143.7ZM135.3 140.4L135.918 139.614C130.077 135.024 121.824 132.8 111.3 132.8V133.8V134.8C121.576 134.8 129.323 136.976 134.682 141.186L135.3 140.4ZM111.3 133.8V132.8H74.4V133.8V134.8H111.3V133.8ZM74.4 133.8H73.4V187.8H74.4H75.4V133.8H74.4ZM226.734 297L225.993 297.671L226.01 297.689L226.027 297.707L226.734 297ZM224.634 263.7L223.773 263.191L223.765 263.206L223.756 263.221L224.634 263.7ZM234.534 250.8L233.812 250.109L233.81 250.11L234.534 250.8ZM287.034 195.9L287.757 196.591L287.762 196.586L287.767 196.58L287.034 195.9ZM303.534 174.3L302.664 173.807L302.658 173.818L302.652 173.829L303.534 174.3ZM264.234 135.6L264.451 136.576L264.468 136.572L264.485 136.568L264.234 135.6ZM246.834 142.2L247.241 143.114L247.267 143.102L247.293 143.089L246.834 142.2ZM232.134 144.3L231.903 145.273L231.913 145.275L232.134 144.3ZM221.334 137.7L220.562 138.336L220.573 138.349L220.585 138.362L221.334 137.7ZM215.934 126L214.944 126.135L214.947 126.157L214.951 126.179L215.934 126ZM218.034 113.1L218.937 113.53L218.941 113.522L218.945 113.514L218.034 113.1ZM228.834 102.3L229.308 103.18L229.312 103.179L228.834 102.3ZM257.334 91.5L257.12 90.5233L257.115 90.5243L257.334 91.5ZM328.434 95.4L328.034 96.3165L328.04 96.3191L328.434 95.4ZM353.934 116.4L353.088 116.933L353.094 116.942L353.934 116.4ZM358.734 174.6L357.783 174.291L357.78 174.302L357.777 174.313L358.734 174.6ZM346.734 198.6L345.915 198.027L345.91 198.033L345.906 198.041L346.734 198.6ZM324.834 224.1L324.135 223.385L324.132 223.389L324.834 224.1ZM276.234 272.1H275.234V274.493L276.937 272.811L276.234 272.1ZM276.234 258.3V257.3H275.234V258.3H276.234ZM367.134 264L366.427 264.707L366.436 264.716L366.446 264.725L367.134 264ZM367.134 297.3L367.841 298.007V298.007L367.134 297.3ZM245.934 303V302C237.256 302 231.172 300.024 227.441 296.293L226.734 297L226.027 297.707C230.296 301.976 237.013 304 245.934 304V303ZM226.734 297L227.476 296.329C223.9 292.377 222.034 286.554 222.034 278.7H221.034H220.034C220.034 286.846 221.969 293.223 225.993 297.671L226.734 297ZM221.034 278.7H222.034C222.034 273.247 223.201 268.415 225.512 264.179L224.634 263.7L223.756 263.221C221.267 267.785 220.034 272.953 220.034 278.7H221.034ZM224.634 263.7L225.495 264.209C228.052 259.882 231.304 255.642 235.259 251.49L234.534 250.8L233.81 250.11C229.765 254.358 226.417 258.718 223.773 263.191L224.634 263.7ZM234.534 250.8L235.257 251.491L287.757 196.591L287.034 195.9L286.312 195.209L233.812 250.109L234.534 250.8ZM287.034 195.9L287.767 196.58C295.592 188.154 301.158 180.881 304.417 174.771L303.534 174.3L302.652 173.829C299.511 179.719 294.077 186.846 286.302 195.22L287.034 195.9ZM303.534 174.3L304.404 174.793C307.877 168.665 309.634 162.497 309.634 156.3H308.634H307.634C307.634 162.103 305.992 167.935 302.664 173.807L303.534 174.3ZM308.634 156.3H309.634C309.634 148.461 307.041 142.433 301.739 138.404L301.134 139.2L300.529 139.996C305.227 143.567 307.634 148.939 307.634 156.3H308.634ZM301.134 139.2L301.739 138.404C296.498 134.42 289.049 132.5 279.534 132.5V133.5V134.5C288.819 134.5 295.771 136.38 300.529 139.996L301.134 139.2ZM279.534 133.5V132.5C274.637 132.5 269.452 133.214 263.983 134.632L264.234 135.6L264.485 136.568C269.816 135.186 274.831 134.5 279.534 134.5V133.5ZM264.234 135.6L264.017 134.624C258.515 135.847 252.633 138.082 246.376 141.311L246.834 142.2L247.293 143.089C253.435 139.918 259.154 137.753 264.451 136.576L264.234 135.6ZM246.834 142.2L246.428 141.286C241.164 143.626 236.489 144.264 232.356 143.325L232.134 144.3L231.913 145.275C236.58 146.336 241.704 145.574 247.241 143.114L246.834 142.2ZM232.134 144.3L232.366 143.327C228.377 142.377 224.955 140.292 222.084 137.038L221.334 137.7L220.585 138.362C223.714 141.908 227.492 144.223 231.903 145.273L232.134 144.3ZM221.334 137.7L222.106 137.064C219.416 133.798 217.688 130.056 216.918 125.821L215.934 126L214.951 126.179C215.781 130.744 217.652 134.802 220.562 138.336L221.334 137.7ZM215.934 126L216.925 125.865C216.353 121.667 217.017 117.563 218.937 113.53L218.034 113.1L217.132 112.67C215.052 117.037 214.316 121.533 214.944 126.135L215.934 126ZM218.034 113.1L218.945 113.514C220.836 109.354 224.257 105.9 229.308 103.18L228.834 102.3L228.36 101.42C223.012 104.3 219.233 108.046 217.124 112.686L218.034 113.1ZM228.834 102.3L229.312 103.179C238.434 98.2209 247.847 94.6546 257.553 92.4757L257.334 91.5L257.115 90.5243C247.221 92.7454 237.635 96.3791 228.357 101.421L228.834 102.3ZM257.334 91.5L257.549 92.4766C267.48 90.2918 277.408 89.2 287.334 89.2V88.2V87.2C277.26 87.2 267.188 88.3082 257.12 90.5233L257.334 91.5ZM287.334 88.2V89.2C303.644 89.2 317.198 91.5878 328.034 96.3165L328.434 95.4L328.834 94.4834C317.671 89.6122 303.825 87.2 287.334 87.2V88.2ZM328.434 95.4L328.04 96.3191C339.078 101.049 347.409 107.925 353.088 116.933L353.934 116.4L354.78 115.867C348.859 106.475 340.191 99.3507 328.828 94.4809L328.434 95.4ZM353.934 116.4L353.094 116.942C358.766 125.744 361.634 136.744 361.634 150H362.634H363.634C363.634 136.456 360.702 125.056 354.775 115.858L353.934 116.4ZM362.634 150H361.634C361.634 158.295 360.351 166.391 357.783 174.291L358.734 174.6L359.685 174.909C362.318 166.809 363.634 158.505 363.634 150H362.634ZM358.734 174.6L357.777 174.313C355.412 182.195 351.464 190.099 345.915 198.027L346.734 198.6L347.554 199.173C353.205 191.101 357.257 183.005 359.692 174.887L358.734 174.6ZM346.734 198.6L345.906 198.041C340.553 205.97 333.302 214.418 324.135 223.385L324.834 224.1L325.534 224.815C334.767 215.782 342.115 207.23 347.563 199.159L346.734 198.6ZM324.834 224.1L324.132 223.389L275.532 271.389L276.234 272.1L276.937 272.811L325.537 224.811L324.834 224.1ZM276.234 272.1H277.234V258.3H276.234H275.234V272.1H276.234ZM276.234 258.3V259.3H350.334V258.3V257.3H276.234V258.3ZM350.334 258.3V259.3C357.571 259.3 362.876 261.156 366.427 264.707L367.134 264L367.841 263.293C363.792 259.244 357.898 257.3 350.334 257.3V258.3ZM367.134 264L366.446 264.725C370.191 268.283 372.134 273.486 372.134 280.5H373.134H374.134C374.134 273.114 372.078 267.317 367.823 263.275L367.134 264ZM373.134 280.5H372.134C372.134 287.511 370.192 292.828 366.427 296.593L367.134 297.3L367.841 298.007C372.077 293.772 374.134 287.889 374.134 280.5H373.134ZM367.134 297.3L366.427 296.593C362.876 300.144 357.571 302 350.334 302V303V304C357.898 304 363.792 302.056 367.841 298.007L367.134 297.3ZM350.334 303V302H245.934V303V304H350.334V303ZM409.017 298.5L408.296 299.193L408.303 299.2L408.31 299.207L409.017 298.5ZM409.017 98.7L408.325 97.9786L408.317 97.9857L408.31 97.9929L409.017 98.7ZM559.017 110.1L558.327 110.824L558.333 110.829L558.338 110.834L559.017 110.1ZM559.017 211.8L559.702 212.529L559.702 212.529L559.017 211.8ZM457.017 230.1V229.1H456.017V230.1H457.017ZM450.117 298.5L450.839 299.192L450.846 299.185L450.853 299.177L450.117 298.5ZM457.017 187.8H456.017V188.8H457.017V187.8ZM517.917 181.2L518.535 181.986L518.544 181.98L518.552 181.973L517.917 181.2ZM517.917 140.4L518.535 139.614V139.614L517.917 140.4ZM457.017 133.8V132.8H456.017V133.8H457.017ZM429.417 305.7V304.7C420.8 304.7 414.286 302.354 409.724 297.793L409.017 298.5L408.31 299.207C413.349 304.246 420.434 306.7 429.417 306.7V305.7ZM409.017 298.5L409.739 297.807C405.162 293.04 402.817 286.415 402.817 277.8H401.817H400.817C400.817 286.785 403.272 293.96 408.296 299.193L409.017 298.5ZM401.817 277.8H402.817V119.4H401.817H400.817V277.8H401.817ZM401.817 119.4H402.817C402.817 110.576 405.167 103.965 409.724 99.4071L409.017 98.7L408.31 97.9929C403.268 103.035 400.817 110.224 400.817 119.4H401.817ZM409.017 98.7L409.71 99.4214C414.477 94.8448 421.103 92.5 429.717 92.5V91.5V90.5C420.732 90.5 413.557 92.9551 408.325 97.9786L409.017 98.7ZM429.717 91.5V92.5H503.517V91.5V90.5H429.717V91.5ZM503.517 91.5V92.5C527.349 92.5 545.568 98.6539 558.327 110.824L559.017 110.1L559.707 109.376C546.466 96.7461 527.686 90.5 503.517 90.5V91.5ZM559.017 110.1L558.338 110.834C571.293 122.807 577.817 139.418 577.817 160.8H578.817H579.817C579.817 138.982 573.142 121.793 559.696 109.366L559.017 110.1ZM578.817 160.8H577.817C577.817 182.182 571.293 198.896 558.333 211.071L559.017 211.8L559.702 212.529C573.142 199.904 579.817 182.618 579.817 160.8H578.817ZM559.017 211.8L558.333 211.071C545.575 223.044 527.353 229.1 503.517 229.1V230.1V231.1C527.682 231.1 546.46 224.956 559.702 212.529L559.017 211.8ZM503.517 230.1V229.1H457.017V230.1V231.1H503.517V230.1ZM457.017 230.1H456.017V277.8H457.017H458.017V230.1H457.017ZM457.017 277.8H456.017C456.017 286.426 453.766 293.057 449.381 297.823L450.117 298.5L450.853 299.177C455.668 293.943 458.017 286.775 458.017 277.8H457.017ZM450.117 298.5L449.395 297.808C445.047 302.345 438.452 304.7 429.417 304.7V305.7V306.7C438.782 306.7 445.987 304.255 450.839 299.192L450.117 298.5ZM457.017 187.8V188.8H493.917V187.8V186.8H457.017V187.8ZM493.917 187.8V188.8C504.442 188.8 512.694 186.576 518.535 181.986L517.917 181.2L517.299 180.414C511.94 184.624 504.193 186.8 493.917 186.8V187.8ZM517.917 181.2L518.552 181.973C524.438 177.138 527.317 170.02 527.317 160.8H526.317H525.317C525.317 169.58 522.596 176.062 517.282 180.427L517.917 181.2ZM526.317 160.8H527.317C527.317 151.391 524.444 144.256 518.535 139.614L517.917 140.4L517.299 141.186C522.591 145.344 525.317 151.809 525.317 160.8H526.317ZM517.917 140.4L518.535 139.614C512.694 135.024 504.442 132.8 493.917 132.8V133.8V134.8C504.193 134.8 511.94 136.976 517.299 141.186L517.917 140.4ZM493.917 133.8V132.8H457.017V133.8V134.8H493.917V133.8ZM457.017 133.8H456.017V187.8H457.017H458.017V133.8H457.017Z" fill="#006B3F" mask="url(#path-1-outside-1_4_92)"/>
</g>
<ellipse cx="491" cy="159" rx="58" ry="46" fill="#006B3F"/>
<ellipse cx="111.5" cy="159" rx="53.5" ry="46" fill="#006B3F"/>
<path d="M625.64 304.8C616.64 304.8 609.44 302.1 604.04 296.7C598.84 291.3 596.24 284.2 596.24 275.4C596.24 266.8 598.84 259.9 604.04 254.7C609.44 249.3 616.64 246.6 625.64 246.6C635.04 246.6 642.24 249.3 647.24 254.7C652.44 259.9 655.04 266.8 655.04 275.4C655.04 284.2 652.44 291.3 647.24 296.7C642.24 302.1 635.04 304.8 625.64 304.8ZM779.378 306.3C767.978 306.3 757.778 303.6 748.778 298.2C739.978 292.6 734.178 285.3 731.378 276.3L734.678 264V278.7C734.678 287.5 732.378 294.2 727.778 298.8C723.378 303.4 716.978 305.7 708.578 305.7C699.978 305.7 693.378 303.4 688.778 298.8C684.378 294.2 682.178 287.5 682.178 278.7V115.8C682.178 107 684.478 100.3 689.078 95.7C693.678 91.1 700.178 88.8 708.578 88.8C717.178 88.8 723.778 91.1 728.378 95.7C733.178 100.3 735.578 107 735.578 115.8V180H731.978C734.978 171.8 740.878 165.1 749.678 159.9C758.478 154.7 768.378 152.1 779.378 152.1C792.178 152.1 803.378 155.2 812.978 161.4C822.778 167.6 830.378 176.4 835.778 187.8C841.178 199.2 843.878 213 843.878 229.2C843.878 245 841.178 258.7 835.778 270.3C830.378 281.9 822.778 290.8 812.978 297C803.378 303.2 792.178 306.3 779.378 306.3ZM762.578 267C767.978 267 772.678 265.7 776.678 263.1C780.878 260.3 784.178 256.2 786.578 250.8C788.978 245.2 790.178 238 790.178 229.2C790.178 215.8 787.578 206.2 782.378 200.4C777.178 194.4 770.578 191.4 762.578 191.4C757.178 191.4 752.378 192.7 748.178 195.3C743.978 197.9 740.678 202 738.278 207.6C735.878 213 734.678 220.2 734.678 229.2C734.678 242.4 737.278 252 742.478 258C747.678 264 754.378 267 762.578 267ZM859.513 359.1C853.313 359.3 848.413 358.2 844.813 355.8C841.013 353.4 838.413 350.4 837.013 346.8C835.613 343.2 835.313 339.5 836.113 335.7C836.713 332.1 838.313 328.9 840.913 326.1C843.513 323.5 846.813 322 850.813 321.6C857.413 321.2 862.213 319.4 865.213 316.2C868.213 313.2 869.713 308.5 869.713 302.1V179.4C869.713 170.8 872.013 164.2 876.613 159.6C881.213 155 887.813 152.7 896.413 152.7C905.013 152.7 911.613 155 916.213 159.6C920.813 164.2 923.113 170.8 923.113 179.4V297C923.113 310.4 920.813 321.6 916.213 330.6C911.613 339.8 904.613 346.7 895.213 351.3C886.013 356.1 874.113 358.7 859.513 359.1ZM896.113 131.4C886.513 131.4 879.113 129.2 873.913 124.8C868.913 120.4 866.413 114 866.413 105.6C866.413 97.4 868.913 91.1 873.913 86.7C879.113 82.3 886.513 80.1 896.113 80.1C905.713 80.1 913.013 82.3 918.013 86.7C923.213 91.1 925.813 97.4 925.813 105.6C925.813 114 923.213 120.4 918.013 124.8C913.013 129.2 905.713 131.4 896.113 131.4Z" fill="#FCD116"/>
<g filter="url(#filter1_d_4_92)">
<path d="M105.642 132H125.322L125.585 132.387C132.651 142.786 140.63 150.744 149.519 156.281L150 156.58V170.647L149.507 170.942C140.743 176.189 132.768 184.07 125.584 194.614L125.321 195H105.467L105.83 193.595C106.661 190.383 107.67 187.245 108.857 184.181L108.86 184.171L108.864 184.162C109.941 181.514 111.179 178.871 112.575 176.23H75V150.77H112.746C111.355 148.159 110.121 145.593 109.047 143.072L109.036 143.046L109.025 143.018C107.842 139.817 106.836 136.612 106.006 133.405L105.642 132Z" fill="white"/>
</g>
<g filter="url(#filter2_d_4_92)">
<path d="M502.358 132H482.678L482.415 132.387C475.349 142.786 467.37 150.744 458.481 156.281L458 156.58V170.647L458.493 170.942C467.257 176.189 475.232 184.07 482.416 194.614L482.679 195H502.533L502.17 193.595C501.339 190.383 500.33 187.245 499.143 184.181L499.14 184.171L499.136 184.162C498.059 181.514 496.821 178.871 495.425 176.23H533V150.77H495.254C496.645 148.159 497.879 145.593 498.953 143.072L498.964 143.046L498.975 143.018C500.158 139.817 501.164 136.612 501.994 133.405L502.358 132Z" fill="white"/>
</g>
<defs>
<filter id="filter0_d_4_92" x="14.2" y="87.2" width="569.617" height="227.5" filterUnits="userSpaceOnUse" color-interpolation-filters="sRGB">
<feFlood flood-opacity="0" result="BackgroundImageFix"/>
<feColorMatrix in="SourceAlpha" type="matrix" values="0 0 0 0 0 0 0 0 0 0 0 0 0 0 0 0 0 0 127 0" result="hardAlpha"/>
<feOffset dy="4"/>
<feGaussianBlur stdDeviation="2"/>
<feComposite in2="hardAlpha" operator="out"/>
<feColorMatrix type="matrix" values="0 0 0 0 0 0 0 0 0 0 0 0 0 0 0 0 0 0 0.25 0"/>
<feBlend mode="normal" in2="BackgroundImageFix" result="effect1_dropShadow_4_92"/>
<feBlend mode="normal" in="SourceGraphic" in2="effect1_dropShadow_4_92" result="shape"/>
</filter>
<filter id="filter1_d_4_92" x="71" y="132" width="83" height="71" filterUnits="userSpaceOnUse" color-interpolation-filters="sRGB">
<feFlood flood-opacity="0" result="BackgroundImageFix"/>
<feColorMatrix in="SourceAlpha" type="matrix" values="0 0 0 0 0 0 0 0 0 0 0 0 0 0 0 0 0 0 127 0" result="hardAlpha"/>
<feOffset dy="4"/>
<feGaussianBlur stdDeviation="2"/>
<feComposite in2="hardAlpha" operator="out"/>
<feColorMatrix type="matrix" values="0 0 0 0 0 0 0 0 0 0 0 0 0 0 0 0 0 0 0.25 0"/>
<feBlend mode="normal" in2="BackgroundImageFix" result="effect1_dropShadow_4_92"/>
<feBlend mode="normal" in="SourceGraphic" in2="effect1_dropShadow_4_92" result="shape"/>
</filter>
<filter id="filter2_d_4_92" x="454" y="132" width="83" height="71" filterUnits="userSpaceOnUse" color-interpolation-filters="sRGB">
<feFlood flood-opacity="0" result="BackgroundImageFix"/>
<feColorMatrix in="SourceAlpha" type="matrix" values="0 0 0 0 0 0 0 0 0 0 0 0 0 0 0 0 0 0 127 0" result="hardAlpha"/>
<feOffset dy="4"/>
<feGaussianBlur stdDeviation="2"/>
<feComposite in2="hardAlpha" operator="out"/>
<feColorMatrix type="matrix" values="0 0 0 0 0 0 0 0 0 0 0 0 0 0 0 0 0 0 0.25 0"/>
<feBlend mode="normal" in2="BackgroundImageFix" result="effect1_dropShadow_4_92"/>
<feBlend mode="normal" in="SourceGraphic" in2="effect1_dropShadow_4_92" result="shape"/>
</filter>
</defs>
</svg>
